<svg width="122" height="37" viewBox="0 0 122 37" fill="none" xmlns="http://www.w3.org/2000/svg">
<path fill-rule="evenodd" clip-rule="evenodd" d="M16.469 2.5314C15.4619 2.5314 14.4961 2.93145 13.784 3.64354C13.0719 4.35563 12.6719 5.32144 12.6719 6.32849V6.76727C13.6119 6.75039 14.643 6.75039 15.7771 6.75039H17.1626C18.2933 6.75039 19.3261 6.75039 20.2678 6.76727V6.32849C20.2678 5.82971 20.1695 5.33581 19.9786 4.87502C19.7876 4.41422 19.5078 3.99556 19.155 3.64294C18.8022 3.29033 18.3835 3.01067 17.9226 2.81995C17.4617 2.62923 16.9678 2.53117 16.469 2.5314ZM22.7975 6.88202V6.32849C22.7975 4.65007 22.1307 3.04039 20.9439 1.85357C19.7571 0.66675 18.1474 0 16.469 0C14.7905 0 13.1809 0.66675 11.994 1.85357C10.8072 3.04039 10.1405 4.65007 10.1405 6.32849V6.88202C9.89915 6.90227 9.66795 6.9259 9.44181 6.95459C7.73734 7.16554 6.33325 7.60769 5.13844 8.59831C3.9453 9.58893 3.2517 10.8884 2.73023 12.5253C2.22395 14.1117 1.84256 16.1486 1.36328 18.7121L1.32784 18.8977C0.649426 22.5142 0.116145 25.3646 0.0165763 27.6108C-0.0846795 29.9144 0.259591 31.8213 1.55904 33.3857C2.85849 34.9518 4.66928 35.6404 6.95092 35.9661C9.17855 36.2833 12.0761 36.2833 15.7568 36.2833H17.1828C20.8618 36.2833 23.7611 36.2833 25.987 35.9661C28.2687 35.6404 30.0811 34.9518 31.3806 33.3857C32.68 31.8213 33.0209 29.9144 32.9214 27.6108C32.8235 25.3646 32.2885 22.5142 31.6101 18.8977L31.5763 18.7121C31.0954 16.1486 30.7123 14.11 30.2094 12.5253C29.6862 10.8884 28.9943 9.58893 27.7995 8.59831C26.6064 7.60769 25.2006 7.16385 23.4961 6.95459C23.2637 6.92609 23.0308 6.90189 22.7975 6.88202ZM9.75233 9.46742C8.30943 9.64462 7.43694 9.98045 6.75515 10.5475C6.07505 11.1111 5.58396 11.906 5.14181 13.2932C4.69122 14.7108 4.33514 16.5975 3.83561 19.2622C3.13357 23.0036 2.63573 25.6751 2.54629 27.7222C2.45853 29.7304 2.78255 30.8949 3.50653 31.7707C4.2322 32.6432 5.31732 33.1748 7.30869 33.4583C9.3338 33.7486 12.0542 33.752 15.8614 33.752H17.0765C20.8854 33.752 23.6024 33.7486 25.6292 33.46C27.6206 33.1748 28.7057 32.6432 29.4314 31.7707C30.1571 30.8965 30.4794 29.7321 30.3933 27.7205C30.3022 25.6768 29.8044 23.0036 29.1023 19.2622C28.6028 16.5958 28.2484 14.7125 27.7961 13.2932C27.354 11.906 26.8646 11.1111 26.1828 10.5458C25.501 9.98045 24.6302 9.64462 23.1856 9.46574C21.7073 9.28347 19.7885 9.28179 17.0765 9.28179H15.8614C13.1495 9.28179 11.2307 9.28347 9.75233 9.46742ZM11.6137 15.2053C11.7778 15.2325 11.9348 15.2918 12.0759 15.3797C12.217 15.4676 12.3394 15.5825 12.4361 15.7177C12.5328 15.853 12.6019 16.006 12.6394 16.1679C12.677 16.3299 12.6823 16.4977 12.655 16.6617L10.9674 26.7872C10.9401 26.9512 10.8808 27.1083 10.7929 27.2493C10.705 27.3904 10.5901 27.5128 10.4548 27.6095C10.3196 27.7062 10.1667 27.7753 10.0047 27.8129C9.84276 27.8504 9.675 27.8557 9.511 27.8285C9.347 27.8012 9.18998 27.7419 9.0489 27.654C8.90782 27.566 8.78544 27.4512 8.68875 27.3159C8.59206 27.1807 8.52295 27.0277 8.48538 26.8658C8.4478 26.7038 8.4425 26.5361 8.46975 26.3721L10.1574 16.2465C10.1846 16.0825 10.2439 15.9254 10.3318 15.7843C10.4197 15.6432 10.5346 15.5209 10.6698 15.4242C10.8051 15.3275 10.9581 15.2584 11.12 15.2208C11.282 15.1832 11.4497 15.178 11.6137 15.2053ZM21.3242 15.2053C21.4882 15.178 21.656 15.1832 21.8179 15.2208C21.9799 15.2584 22.1328 15.3275 22.2681 15.4242C22.4033 15.5209 22.5182 15.6432 22.6061 15.7843C22.6941 15.9254 22.7534 16.0825 22.7806 16.2465L24.4682 26.3721C24.5232 26.7033 24.4445 27.0428 24.2492 27.3159C24.0539 27.5891 23.7581 27.7734 23.4269 27.8285C23.0957 27.8835 22.7562 27.8048 22.4831 27.6095C22.21 27.4142 22.0256 27.1184 21.9705 26.7872L20.2829 16.6617C20.2556 16.4977 20.2609 16.3299 20.2985 16.1679C20.336 16.006 20.4052 15.853 20.5018 15.7177C20.5985 15.5825 20.7209 15.4676 20.862 15.3797C21.0031 15.2918 21.1602 15.2325 21.3242 15.2053Z" fill="black"/>
<path d="M45.9683 21.06L50.2883 28H47.7283L44.5883 22.96L41.6483 28H39.1083L43.4283 21.06L39.0883 14.1H41.6483L44.8083 19.18L47.7683 14.1H50.3083L45.9683 21.06ZM55.8514 18.84V24.94C55.8514 25.3533 55.9447 25.6533 56.1314 25.84C56.3314 26.0133 56.6647 26.1 57.1314 26.1H58.5314V28H56.7314C55.7047 28 54.9181 27.76 54.3714 27.28C53.8247 26.8 53.5514 26.02 53.5514 24.94V18.84H52.2514V16.98H53.5514V14.24H55.8514V16.98H58.5314V18.84H55.8514ZM60.2728 22.44C60.2728 21.3333 60.4995 20.3533 60.9528 19.5C61.4195 18.6467 62.0461 17.9867 62.8328 17.52C63.6328 17.04 64.5128 16.8 65.4728 16.8C66.3395 16.8 67.0928 16.9733 67.7328 17.32C68.3861 17.6533 68.9061 18.0733 69.2928 18.58V16.98H71.5928V28H69.2928V26.36C68.9061 26.88 68.3795 27.3133 67.7128 27.66C67.0461 28.0067 66.2861 28.18 65.4328 28.18C64.4861 28.18 63.6195 27.94 62.8328 27.46C62.0461 26.9667 61.4195 26.2867 60.9528 25.42C60.4995 24.54 60.2728 23.5467 60.2728 22.44ZM69.2928 22.48C69.2928 21.72 69.1328 21.06 68.8128 20.5C68.5061 19.94 68.0995 19.5133 67.5928 19.22C67.0861 18.9267 66.5395 18.78 65.9528 18.78C65.3661 18.78 64.8195 18.9267 64.3128 19.22C63.8061 19.5 63.3928 19.92 63.0728 20.48C62.7661 21.0267 62.6128 21.68 62.6128 22.44C62.6128 23.2 62.7661 23.8667 63.0728 24.44C63.3928 25.0133 63.8061 25.4533 64.3128 25.76C64.8328 26.0533 65.3795 26.2 65.9528 26.2C66.5395 26.2 67.0861 26.0533 67.5928 25.76C68.0995 25.4667 68.5061 25.04 68.8128 24.48C69.1328 23.9067 69.2928 23.24 69.2928 22.48ZM77.2675 18.62C77.6542 18.0867 78.1808 17.6533 78.8475 17.32C79.5275 16.9733 80.2808 16.8 81.1075 16.8C82.0808 16.8 82.9608 17.0333 83.7475 17.5C84.5342 17.9667 85.1542 18.6333 85.6075 19.5C86.0608 20.3533 86.2875 21.3333 86.2875 22.44C86.2875 23.5467 86.0608 24.54 85.6075 25.42C85.1542 26.2867 84.5275 26.9667 83.7275 27.46C82.9408 27.94 82.0675 28.18 81.1075 28.18C80.2542 28.18 79.4942 28.0133 78.8275 27.68C78.1742 27.3467 77.6542 26.92 77.2675 26.4V28H74.9875V13.2H77.2675V18.62ZM83.9675 22.44C83.9675 21.68 83.8075 21.0267 83.4875 20.48C83.1808 19.92 82.7675 19.5 82.2475 19.22C81.7408 18.9267 81.1942 18.78 80.6075 18.78C80.0342 18.78 79.4875 18.9267 78.9675 19.22C78.4608 19.5133 78.0475 19.94 77.7275 20.5C77.4208 21.06 77.2675 21.72 77.2675 22.48C77.2675 23.24 77.4208 23.9067 77.7275 24.48C78.0475 25.04 78.4608 25.4667 78.9675 25.76C79.4875 26.0533 80.0342 26.2 80.6075 26.2C81.1942 26.2 81.7408 26.0533 82.2475 25.76C82.7675 25.4533 83.1808 25.0133 83.4875 24.44C83.8075 23.8667 83.9675 23.2 83.9675 22.44ZM99.0422 22.22C99.0422 22.6333 99.0155 23.0067 98.9622 23.34H90.5422C90.6089 24.22 90.9355 24.9267 91.5222 25.46C92.1089 25.9933 92.8289 26.26 93.6822 26.26C94.9089 26.26 95.7755 25.7467 96.2822 24.72H98.7422C98.4089 25.7333 97.8022 26.5667 96.9222 27.22C96.0555 27.86 94.9755 28.18 93.6822 28.18C92.6289 28.18 91.6822 27.9467 90.8422 27.48C90.0155 27 89.3622 26.3333 88.8822 25.48C88.4155 24.6133 88.1822 23.6133 88.1822 22.48C88.1822 21.3467 88.4089 20.3533 88.8622 19.5C89.3289 18.6333 89.9755 17.9667 90.8022 17.5C91.6422 17.0333 92.6022 16.8 93.6822 16.8C94.7222 16.8 95.6489 17.0267 96.4622 17.48C97.2755 17.9333 97.9089 18.5733 98.3622 19.4C98.8155 20.2133 99.0422 21.1533 99.0422 22.22ZM96.6622 21.5C96.6489 20.66 96.3489 19.9867 95.7622 19.48C95.1755 18.9733 94.4489 18.72 93.5822 18.72C92.7955 18.72 92.1222 18.9733 91.5622 19.48C91.0022 19.9733 90.6689 20.6467 90.5622 21.5H96.6622ZM103.966 13.2V28H101.686V13.2H103.966ZM107.719 14.1H110.199L108.099 18.86H106.499L107.719 14.1ZM116.603 28.18C115.736 28.18 114.956 28.0267 114.263 27.72C113.583 27.4 113.043 26.9733 112.643 26.44C112.243 25.8933 112.03 25.2867 112.003 24.62H114.363C114.403 25.0867 114.623 25.48 115.023 25.8C115.436 26.1067 115.95 26.26 116.563 26.26C117.203 26.26 117.696 26.14 118.043 25.9C118.403 25.6467 118.583 25.3267 118.583 24.94C118.583 24.5267 118.383 24.22 117.983 24.02C117.596 23.82 116.976 23.6 116.123 23.36C115.296 23.1333 114.623 22.9133 114.103 22.7C113.583 22.4867 113.13 22.16 112.743 21.72C112.37 21.28 112.183 20.7 112.183 19.98C112.183 19.3933 112.356 18.86 112.703 18.38C113.05 17.8867 113.543 17.5 114.183 17.22C114.836 16.94 115.583 16.8 116.423 16.8C117.676 16.8 118.683 17.12 119.443 17.76C120.216 18.3867 120.63 19.2467 120.683 20.34H118.403C118.363 19.8467 118.163 19.4533 117.803 19.16C117.443 18.8667 116.956 18.72 116.343 18.72C115.743 18.72 115.283 18.8333 114.963 19.06C114.643 19.2867 114.483 19.5867 114.483 19.96C114.483 20.2533 114.59 20.5 114.803 20.7C115.016 20.9 115.276 21.06 115.583 21.18C115.89 21.2867 116.343 21.4267 116.943 21.6C117.743 21.8133 118.396 22.0333 118.903 22.26C119.423 22.4733 119.87 22.7933 120.243 23.22C120.616 23.6467 120.81 24.2133 120.823 24.92C120.823 25.5467 120.65 26.1067 120.303 26.6C119.956 27.0933 119.463 27.48 118.823 27.76C118.196 28.04 117.456 28.18 116.603 28.18Z" fill="black"/>
</svg>
